<svg width="1133" height="768" viewBox="0 0 1133 768" fill="none" xmlns="http://www.w3.org/2000/svg">
<g clip-path="url(#clip0)">
<path opacity="0.1" d="M612.68 112.3C543.09 112.19 476.04 90.57 411.89 66.51C347.74 42.45 284.1 15.62 215.77 4.11C171.77 -3.29 121.87 -2.79 87.6 23.49C54.63 48.78 45.19 90.75 40.67 129.57C37.28 158.75 35.76 189.4 48.84 216.14C57.93 234.71 73.43 250.03 84.4 267.74C122.57 329.34 99.92 407.74 63.16 470.56C45.91 499.97 25.7 528.2 12.69 559.36C-0.320025 590.52 -5.59003 625.88 7.84997 656.71C21.19 687.28 51.19 709.57 83.28 724.78C148.57 755.78 224.44 762.6 298.28 765.37C461.76 771.51 625.49 760.57 788.79 749.57C849.22 745.51 909.92 741.41 969.08 729.28C1001.93 722.55 1035.74 712.52 1058.98 690.36C1088.48 662.24 1094.4 616.19 1072.79 583.02C1036.53 527.33 941.37 516.57 915.27 456.39C900.9 423.26 913.1 385.39 931.13 353.53C969.82 285.24 1036.57 224.16 1037.48 147.64C1038.1 95.08 1003.15 43.71 951.11 20.71C896.55 -3.43 822.31 2.51 784.28 46.99C745.12 92.79 674.13 112.4 612.68 112.3Z" fill="#3E553A"/>
<path d="M958.84 626C958.84 626 946.55 617.89 934.37 623.66C934.37 623.66 938.12 630.89 953.54 630.2L958.84 626Z" fill="#9EE393"/>
<path d="M960.35 626.44C960.35 626.44 964.09 640.68 954.72 650.37C954.72 650.37 949.08 644.49 954.72 630.11L960.35 626.44Z" fill="#9EE393"/>
<path d="M975.68 612.77C975.68 612.77 974.77 600.65 947.43 604.67C947.43 604.67 947.3 612.49 956.9 616.19C966.5 619.89 970.89 616.77 975.68 612.77Z" fill="#9EE393"/>
<path d="M977.36 612.68C977.36 612.68 988.93 616.4 978.62 642.05C978.62 642.05 970.99 640.34 969.62 630.14C968.25 619.94 972.35 616.4 977.36 612.68Z" fill="#9EE393"/>
<path d="M992.85 595.5C992.85 595.5 994.41 575.57 966.46 577.62C966.46 577.62 964.46 595.62 987.91 600.29L992.85 595.5Z" fill="#9EE393"/>
<path d="M1011.32 573C1011.32 573 1007.48 550.42 979.55 557.15C979.55 557.15 979.44 576.68 1006.75 578.39L1011.32 573Z" fill="#9EE393"/>
<path d="M1024.81 549.74C1024.81 549.74 1018.4 527.74 990.72 534.33C990.72 534.33 997.3 554.11 1022.97 553.81L1024.81 549.74Z" fill="#9EE393"/>
<path d="M1037.63 527.03C1037.63 527.03 1031.36 504.2 1004.63 511.03C1004.63 511.03 1013.55 532.72 1035.87 530.9L1037.63 527.03Z" fill="#9EE393"/>
<path d="M1045.9 505.45C1045.9 505.45 1041.08 477.57 1016.19 483.71C1016.19 483.71 1023.43 509.11 1044.09 509.51L1045.9 505.45Z" fill="#9EE393"/>
<path d="M1053.64 479.38C1053.64 479.38 1047.86 451.23 1022.64 459.38C1022.64 459.38 1032.53 485.97 1051.86 483.22L1053.64 479.38Z" fill="#9EE393"/>
<path d="M1058.44 455.11C1058.44 455.11 1049.25 426.97 1029.76 427.73C1029.76 427.73 1039.16 457.46 1056.76 460.73L1058.44 455.11Z" fill="#9EE393"/>
<path d="M1061.49 431.44C1061.49 431.44 1051.49 397.56 1035.63 400.17C1035.63 400.17 1042.55 426.07 1060.93 436.71L1061.49 431.44Z" fill="#9EE393"/>
<path d="M1063.19 403.16C1063.19 403.16 1053.82 374.92 1038.19 373.8C1038.19 373.8 1044.57 401.58 1062.87 410.49L1063.19 403.16Z" fill="#9EE393"/>
<path d="M1065.12 376.83C1065.12 376.83 1053.43 348.56 1043.12 347.93C1043.12 347.93 1048.19 375.75 1064.12 381.47L1065.12 376.83Z" fill="#9EE393"/>
<path d="M1066.41 352.31C1066.41 352.31 1059.19 321.57 1048.89 319.07C1048.89 319.07 1050.31 344.17 1065.38 354.6L1066.41 352.31Z" fill="#9EE393"/>
<path d="M1070.3 320.22C1070.3 320.22 1062.74 295.76 1054.37 292.03C1054.37 292.03 1056.03 320.87 1068.37 326.21L1070.3 320.22Z" fill="#9EE393"/>
<path d="M1073.53 299.15L1075.06 256.01C1075.06 256.01 1059.44 288.56 1072.38 306.76L1073.53 299.15Z" fill="#9EE393"/>
<path d="M1085.62 256.28C1085.62 256.28 1096.88 224.77 1099.62 223.02C1099.62 223.02 1077.52 243.45 1079.68 269.75L1085.62 256.28Z" fill="#9EE393"/>
<path d="M993.61 595.36C993.61 595.36 1013.43 592.76 1012.83 620.78C1012.83 620.78 994.92 623.69 989.08 600.53L993.61 595.36Z" fill="#9EE393"/>
<path d="M1012.25 572.25C1012.25 572.25 1035.16 572.17 1033.25 600.85C1033.25 600.85 1014.03 604.28 1007.68 577.66L1012.25 572.25Z" fill="#9EE393"/>
<path d="M1025.03 551.57C1025.03 551.57 1045.82 541.82 1059.13 566.98C1059.13 566.98 1039.92 575.11 1023.2 555.63L1025.03 551.57Z" fill="#9EE393"/>
<path d="M1038.1 527.24C1038.1 527.24 1059.38 516.86 1071.88 541.45C1071.88 541.45 1049.71 549.09 1036.34 531.13L1038.1 527.24Z" fill="#9EE393"/>
<path d="M1045.63 506.05C1045.63 506.05 1066.12 486.48 1082.47 506.28C1082.47 506.28 1061.54 522.38 1044.68 510.41L1045.63 506.05Z" fill="#9EE393"/>
<path d="M1052.48 478.71C1052.48 478.71 1073.1 458.71 1089.32 479.63C1089.32 479.63 1066.18 496.06 1051.75 482.91L1052.48 478.71Z" fill="#9EE393"/>
<path d="M1056.34 454.31C1056.34 454.31 1072.22 429.31 1090.91 434.9C1090.91 434.9 1074.44 461.37 1056.52 460.19L1056.34 454.31Z" fill="#9EE393"/>
<path d="M1061.02 431.28C1061.02 431.28 1077.02 399.79 1092.15 405.28C1092.15 405.28 1080.62 429.48 1060.61 436.59L1061.02 431.28Z" fill="#9EE393"/>
<path d="M1062.12 401.57C1062.12 401.57 1078.57 376.79 1093.98 379.81C1093.98 379.81 1080.54 404.94 1060.53 408.74L1062.12 401.57Z" fill="#9EE393"/>
<path d="M1063.38 376.27C1063.38 376.27 1076.12 348.47 1086.49 348.22C1086.49 348.22 1080.37 375.84 1064.23 380.95L1063.38 376.27Z" fill="#9EE393"/>
<path d="M1065.9 351.7C1065.9 351.7 1080.07 323.54 1090.72 323.49C1090.72 323.49 1083.47 347.56 1066.38 354.18L1065.9 351.7Z" fill="#9EE393"/>
<path d="M1068.04 321.95C1068.04 321.95 1078.64 298.65 1087.41 296.01C1087.41 296.01 1082.11 324.41 1069.2 328.13L1068.04 321.95Z" fill="#9EE393"/>
<path d="M1074.8 298.33L1098.48 262.25C1098.48 262.25 1092.42 297.84 1071.34 305.25L1074.8 298.33Z" fill="#9EE393"/>
<path d="M1091.06 259.18C1091.06 259.18 1118.59 240.18 1119.58 237.1C1119.58 237.1 1105.58 263.72 1079.58 268.42L1091.06 259.18Z" fill="#9EE393"/>
<path d="M1092.7 250.63C1092.7 250.63 1124.31 220.24 1132.38 220.28C1132.38 220.28 1106.31 221.47 1091.94 249.01L1092.7 250.63Z" fill="#9EE393"/>
<path d="M1068.34 326.46L1069.49 326.61C1075.43 280.11 1084.09 252.61 1093.88 249.23L1093.5 248.14C1083.13 251.74 1074.43 278.82 1068.34 326.46Z" fill="#444053"/>
<path d="M1059.61 437.63L1061.35 437.78C1061.71 433.44 1061.99 428.99 1062.18 424.57C1063.84 386.08 1066.42 350.75 1069.8 324.26L1068.8 323.01C1065.41 349.55 1062.11 385.96 1060.45 424.49C1060.25 428.89 1059.97 433.31 1059.61 437.63Z" fill="#444053"/>
<path d="M926.38 648.14C926.69 648 957.32 634.33 989.11 601.7C1007.73 582.593 1023.21 560.654 1034.96 536.7C1049.65 506.77 1058.61 469.99 1061.62 434.26L1059.81 435.11C1053.06 515.3 1016.55 570.11 987.51 599.95C956.03 632.29 925.75 645.83 925.45 645.95L926.38 648.14Z" fill="#444053"/>
<path d="M1048.71 48.88H87.83C85.5598 48.88 83.3825 49.7819 81.7772 51.3872C80.1719 52.9925 79.27 55.1698 79.27 57.44V82.38H1057.27V57.44C1057.27 55.1698 1056.37 52.9925 1054.76 51.3872C1053.16 49.7819 1050.98 48.88 1048.71 48.88V48.88Z" fill="#D884AE"/>
<path d="M79.27 82.38V643.62C79.27 648.198 81.0885 652.588 84.3254 655.825C87.5622 659.062 91.9524 660.88 96.53 660.88H1040.01C1044.59 660.88 1048.98 659.062 1052.21 655.825C1055.45 652.588 1057.27 648.198 1057.27 643.62V82.38H79.27Z" fill="white"/>
<path opacity="0.8" d="M94.77 69.37C96.9792 69.37 98.77 67.5791 98.77 65.37C98.77 63.1609 96.9792 61.37 94.77 61.37C92.5609 61.37 90.77 63.1609 90.77 65.37C90.77 67.5791 92.5609 69.37 94.77 69.37Z" fill="#FA5959"/>
<path opacity="0.8" d="M105.77 69.37C107.979 69.37 109.77 67.5791 109.77 65.37C109.77 63.1609 107.979 61.37 105.77 61.37C103.561 61.37 101.77 63.1609 101.77 65.37C101.77 67.5791 103.561 69.37 105.77 69.37Z" fill="#FED253"/>
<path opacity="0.8" d="M116.77 69.37C118.979 69.37 120.77 67.5791 120.77 65.37C120.77 63.1609 118.979 61.37 116.77 61.37C114.561 61.37 112.77 63.1609 112.77 65.37C112.77 67.5791 114.561 69.37 116.77 69.37Z" fill="#8CCF4D"/>
<g opacity="0.3">
<path opacity="0.3" d="M1020.77 116.37H116.77V626.37H1020.77V116.37Z" stroke="#3F3D56" stroke-miterlimit="10"/>
<path opacity="0.3" d="M902.77 116.37H234.77V626.37H902.77V116.37Z" stroke="#3F3D56" stroke-miterlimit="10"/>
<path opacity="0.3" d="M784.77 116.37H352.77V626.37H784.77V116.37Z" stroke="#3F3D56" stroke-miterlimit="10"/>
<path opacity="0.3" d="M666.77 116.37H470.77V626.37H666.77V116.37Z" stroke="#3F3D56" stroke-miterlimit="10"/>
<path opacity="0.3" d="M568.77 116.37V626.37" stroke="#3F3D56" stroke-miterlimit="10"/>
<path opacity="0.3" d="M1020.77 190.37H116.77V552.37H1020.77V190.37Z" stroke="#3F3D56" stroke-miterlimit="10"/>
<path opacity="0.3" d="M1020.77 263.37H116.77V479.37H1020.77V263.37Z" stroke="#3F3D56" stroke-miterlimit="10"/>
<path opacity="0.3" d="M1020.77 336.37H116.77V406.37H1020.77V336.37Z" stroke="#3F3D56" stroke-miterlimit="10"/>
</g>
<path opacity="0.1" d="M329.27 144.87H258.27V170.87H329.27V144.87Z" fill="#3F3D56"/>
<path opacity="0.1" d="M200.27 215.87H147.27V241.87H200.27V215.87Z" fill="#3F3D56"/>
<path opacity="0.1" d="M444.27 144.87H373.27V170.87H444.27V144.87Z" fill="#3F3D56"/>
<path opacity="0.1" d="M552.27 144.87H481.27V170.87H552.27V144.87Z" fill="#3F3D56"/>
<path opacity="0.1" d="M652.27 144.87H581.27V170.87H652.27V144.87Z" fill="#3F3D56"/>
<path opacity="0.1" d="M764.27 144.87H693.27V170.87H764.27V144.87Z" fill="#3F3D56"/>
<path opacity="0.1" d="M878.27 144.87H807.27V170.87H878.27V144.87Z" fill="#3F3D56"/>
<path opacity="0.1" d="M999.27 144.87H928.27V170.87H999.27V144.87Z" fill="#3F3D56"/>
<path d="M444.92 285.82H398.79V330.48H444.92V285.82Z" fill="url(#paint0_linear)"/>
<path d="M444.13 286.59H399.59V329.71H444.13V286.59Z" fill="#7CFCFF"/>
<path d="M539.96 276.14H493.83V320.8H539.96V276.14Z" fill="url(#paint1_linear)"/>
<path d="M539.17 276.91H494.63V320.03H539.17V276.91Z" fill="#FFFFA5"/>
<path d="M722.96 428.14H676.83V472.8H722.96V428.14Z" fill="url(#paint2_linear)"/>
<path d="M722.17 428.91H677.63V472.03H722.17V428.91Z" fill="#FFFFA5"/>
<path d="M316.7 206.23H270.57V250.89H316.7V206.23Z" fill="url(#paint3_linear)"/>
<path d="M315.9 207H271.36V250.12H315.9V207Z" fill="#FFFFA5"/>
<path d="M408.36 270.23H362.23V314.89H408.36V270.23Z" fill="url(#paint4_linear)"/>
<path d="M407.56 271H363.02V314.12H407.56V271Z" fill="#E5A4AF"/>
<path d="M776.92 427.82H730.79V472.48H776.92V427.82Z" fill="url(#paint5_linear)"/>
<path d="M776.13 428.59H731.59V471.71H776.13V428.59Z" fill="#7CFCFF"/>
<path d="M857.92 206.82H811.79V251.48H857.92V206.82Z" fill="url(#paint6_linear)"/>
<path d="M857.13 207.59H812.59V250.71H857.13V207.59Z" fill="#7CFCFF"/>
<path d="M852.92 348.82H806.79V393.48H852.92V348.82Z" fill="url(#paint7_linear)"/>
<path d="M852.13 349.59H807.59V392.71H852.13V349.59Z" fill="#7CFCFF"/>
<path d="M887.92 358.82H841.79V403.48H887.92V358.82Z" fill="url(#paint8_linear)"/>
<path d="M887.13 359.59H842.59V402.71H887.13V359.59Z" fill="#7CFCFF"/>
<path d="M740.36 412.23H694.23V456.89H740.36V412.23Z" fill="url(#paint9_linear)"/>
<path d="M739.56 413H695.02V456.12H739.56V413Z" fill="#E5A4AF"/>
<path d="M745.36 277.23H699.23V321.89H745.36V277.23Z" fill="url(#paint10_linear)"/>
<path d="M744.56 278H700.02V321.12H744.56V278Z" fill="#E5A4AF"/>
<path opacity="0.1" d="M200.27 285.87H147.27V311.87H200.27V285.87Z" fill="#3F3D56"/>
<path opacity="0.1" d="M200.27 358.87H147.27V384.87H200.27V358.87Z" fill="#3F3D56"/>
<path opacity="0.1" d="M200.27 431.87H147.27V457.87H200.27V431.87Z" fill="#3F3D56"/>
<path opacity="0.1" d="M200.27 504.87H147.27V530.87H200.27V504.87Z" fill="#3F3D56"/>
<path opacity="0.1" d="M200.27 577.87H147.27V603.87H200.27V577.87Z" fill="#3F3D56"/>
<path d="M308.27 351.08C309.75 350.14 309.16 347.62 307.64 346.75C306.12 345.88 304.23 346.17 302.52 346.51C302.593 346.074 302.526 345.626 302.328 345.231C302.13 344.836 301.812 344.513 301.42 344.31V343.93C302.42 342.93 302.04 340.93 300.82 340.05C299.6 339.17 297.7 339.13 296.06 339.21C296.177 338.216 296.056 337.208 295.708 336.27C295.361 335.331 294.796 334.488 294.06 333.81C293.773 333.501 293.38 333.311 292.96 333.28C291.96 333.28 291.68 334.56 291.61 335.51C291.42 338.005 291.008 340.478 290.38 342.9L259.3 394.9C255.84 399.9 266.59 384.9 263.13 389.95C261.377 392.699 259.325 395.245 257.01 397.54C254.932 399.395 252.606 400.953 250.1 402.17C248.426 402.219 246.778 401.751 245.38 400.83C243.624 399.6 242.089 398.082 240.84 396.34C238.131 392.896 235.681 389.256 233.51 385.45C232.757 384.245 232.191 382.934 231.83 381.56C231.37 379.4 231.83 377.06 230.98 375.03C230.618 374.273 230.168 373.562 229.64 372.91L227.49 370.06V369.93C227.25 365.71 223.82 362.45 220.62 359.67C217.9 357.29 214.95 354.81 211.36 354.35C209.44 354.1 207.47 354.47 205.55 354.23C203.98 354.03 202.49 353.44 200.93 353.18C199.429 352.975 197.908 352.945 196.4 353.09L195.76 352.5C199.079 351.098 201.898 348.728 203.85 345.7C205.33 343.31 206.14 340.55 207.51 338.09C209.18 335.09 211.66 332.61 213.51 329.73C217.98 322.9 218.8 314.11 216.99 306.15C215.18 298.19 210.94 290.96 205.99 284.51C196.39 272.09 180.29 267.51 165.13 269.91C164.13 270.07 163.13 270.26 162.13 270.48C159.58 271.017 157.09 271.811 154.7 272.85C151.466 274.174 148.66 276.364 146.59 279.18C146.032 280.003 145.56 280.881 145.18 281.8C144.901 282.502 144.673 283.224 144.5 283.96C144.035 286.182 143.91 288.461 144.13 290.72C144.19 291.49 144.27 292.26 144.36 293.03L144.51 294.19C144.61 294.96 144.72 295.73 144.83 296.5C144.99 297.66 145.14 298.82 145.25 299.96C145.338 300.767 145.382 301.578 145.38 302.39C145.38 302.6 145.38 302.8 145.38 303C145.345 303.604 145.254 304.203 145.11 304.79C145.031 305.113 144.931 305.43 144.81 305.74C144.45 306.659 143.976 307.529 143.4 308.33C142.621 309.417 141.776 310.456 140.87 311.44L140 312.44C139.71 312.77 139.43 313.11 139.14 313.44C137.997 314.773 136.951 316.187 136.01 317.67C135.551 318.416 135.14 319.191 134.78 319.99C134.506 320.595 134.269 321.216 134.07 321.85C133.815 322.699 133.635 323.569 133.53 324.45C133.53 324.67 133.53 324.89 133.47 325.11C133.47 325.54 133.47 325.98 133.47 326.42C133.492 326.856 133.539 327.29 133.61 327.72C133.68 328.146 133.781 328.568 133.91 328.98C134.035 329.398 134.192 329.806 134.38 330.2C134.38 330.31 134.48 330.42 134.54 330.53L134.7 330.86C134.81 331.08 134.92 331.29 135.02 331.51C135.171 331.828 135.282 332.164 135.35 332.51C135.35 332.62 135.35 332.74 135.35 332.86C135.35 332.98 135.35 333.12 135.35 333.24C135.191 334.244 134.663 335.154 133.87 335.79C133.67 335.98 133.47 336.15 133.26 336.33L132.94 336.59L132.29 337.1L131.67 337.6C131.125 338.056 130.62 338.558 130.16 339.1C124.529 338.799 118.885 339.352 113.42 340.74C111.478 341.372 109.46 341.739 107.42 341.83C106.93 341.875 106.437 341.799 105.984 341.609C105.531 341.419 105.131 341.121 104.82 340.74C104.474 339.99 104.379 339.148 104.55 338.34C104.82 334.992 104.271 331.628 102.95 328.54C102.631 327.636 102.079 326.832 101.35 326.21C100.979 325.908 100.521 325.732 100.043 325.706C99.5647 325.681 99.0911 325.809 98.69 326.07C100.381 331.541 100.138 337.428 98 342.74C96.9021 345.244 95.615 347.661 94.15 349.97C91.87 353.86 90.59 358.31 88.56 362.34C90.83 370.03 90.32 378.24 91.56 386.18C92.67 393.57 95.25 400.65 97.84 407.66C99.84 412.95 101.92 418.47 106.16 422.19C107.527 423.569 109.37 424.37 111.31 424.43C112.746 424.252 114.118 423.731 115.31 422.91C116.547 422.236 117.687 421.399 118.7 420.42C119.075 420.009 119.41 419.564 119.7 419.09C119.824 419.76 120.079 420.399 120.45 420.97C122.89 415.71 125.57 410.57 128.45 405.54C129.308 405.083 130.113 404.533 130.85 403.9C130.85 404.08 130.94 404.26 130.99 404.44C130.86 404.92 130.74 405.44 130.61 405.89C130.48 406.34 130.33 406.82 130.19 407.27C130.05 407.72 129.98 407.94 129.87 408.27C129.76 408.6 129.6 409.07 129.45 409.47C129.3 409.87 129.13 410.34 128.96 410.77C128.79 411.2 128.73 411.39 128.6 411.69C128.29 412.45 127.97 413.19 127.6 413.93C127.879 414.066 128.166 414.182 128.46 414.28L128.65 414.34C128.909 414.422 129.173 414.489 129.44 414.54H129.73C129.925 414.57 130.122 414.59 130.32 414.6H130.54H131.19C131.906 414.569 132.614 414.448 133.3 414.24L133.69 415.84C134.688 419.435 135.331 423.119 135.61 426.84C135.8 431.04 135.07 435.31 135.88 439.44C136.29 441.59 137.12 443.65 137.42 445.81C137.613 447.844 137.576 449.894 137.31 451.92C136.843 456.827 136.377 461.737 135.91 466.65C135.867 468.454 135.437 470.227 134.65 471.85C133.96 473.05 132.84 474.42 133.54 475.61C134.693 475.303 135.866 475.079 137.05 474.94C136.62 476.5 136.23 478.07 135.86 479.65C135.499 480.824 135.404 482.064 135.58 483.28C135.83 484.42 136.58 485.45 136.66 486.61C136.84 488.41 135.59 490 134.9 491.67C133.14 495.93 135.01 500.73 136.9 504.95L142.42 517.47L146.95 527.74C148.29 530.74 149.64 533.84 150.95 536.92C156.854 550.944 161.674 565.4 165.37 580.16C165.493 580.83 165.748 581.469 166.12 582.04C166.88 583.04 168.27 583.36 169.4 583.98C172.79 585.85 173.18 591.43 170.08 593.75C170.71 601.27 165.08 608.54 162.18 615.5C155.5 631.5 156.71 649.56 154.42 666.76L157.01 665.25C157.317 665.388 157.601 665.574 157.85 665.8C157.79 666.12 157.72 666.453 157.64 666.8C157.29 668.262 156.731 669.667 155.98 670.97C154.47 673.56 152.16 675.87 151.81 678.85C151.6 680.65 152.15 682.45 152.14 684.26C152.14 684.43 152.14 684.59 152.14 684.76C151.91 684.54 151.56 684.56 151.04 684.97C150.226 685.825 149.662 686.887 149.41 688.04C148.96 689.33 148.6 690.64 148.24 691.95L146.9 696.57C146.216 699.355 145.309 702.08 144.19 704.72C143.233 706.488 142.43 708.334 141.79 710.24C141.434 711.793 141.296 713.389 141.38 714.98C141.354 716.505 141.573 718.025 142.03 719.48C142.63 720.913 143.523 722.206 144.65 723.275C145.778 724.345 147.117 725.167 148.58 725.69C151.509 726.719 154.577 727.299 157.68 727.41C158.475 727.512 159.282 727.488 160.07 727.34C160.914 727.097 161.7 726.685 162.38 726.13C166.6 723.03 168.78 717.33 169.16 712.13C169.053 711.057 168.863 709.994 168.59 708.95C168.85 703.26 168.02 697.54 168.45 691.87C168.54 692.52 168.63 693.16 168.73 693.8L169.73 700.17C169.671 699.944 169.554 699.737 169.39 699.57C168.65 701.929 168.519 704.437 169.01 706.86C169.509 709.272 170.211 711.637 171.11 713.93L172.47 717.73C172.798 718.876 173.348 719.947 174.09 720.88C175.28 722.19 177.09 722.68 178.83 723.1C182.57 724.193 186.421 724.864 190.31 725.1C190.83 725.161 191.356 725.063 191.82 724.82C192.058 724.644 192.285 724.454 192.5 724.25C192.846 724.002 193.214 723.788 193.6 723.61C195.271 722.731 196.534 721.235 197.12 719.44C197.401 718.547 197.489 717.604 197.377 716.675C197.265 715.745 196.956 714.85 196.47 714.05C196.015 713.375 195.496 712.745 194.92 712.17L188.08 704.92C187.034 703.678 185.919 702.496 184.74 701.38C184.599 701.236 184.426 701.128 184.234 701.065C184.043 701.002 183.839 700.987 183.64 701.02C181.78 696.38 182.02 690.96 182.34 685.87C182.44 684.35 183.27 681.2 183.6 678.61C184.919 678.164 186.149 677.487 187.23 676.61C188.272 675.849 189.013 674.744 189.32 673.49C192.77 655.87 198.32 638.79 203.56 621.62C204.08 619.93 204.56 618.23 205.09 616.54C205.31 615.82 205.51 615.09 205.72 614.36C205.93 613.63 206.07 613.18 206.24 612.59C206.52 611.59 206.8 610.59 207.07 609.59C207.15 609.32 207.22 609.05 207.3 608.78C207.295 608.727 207.295 608.673 207.3 608.62C207.63 607.39 207.95 606.16 208.3 604.93C208.42 604.45 208.55 603.99 208.67 603.51C209.06 601.95 209.45 600.37 209.82 598.8C209.881 598.583 209.928 598.363 209.96 598.14C210.095 597.585 210.057 597.002 209.85 596.47C209.75 596.264 209.619 596.075 209.46 595.91C209.35 595.78 209.23 595.65 209.11 595.53C208.99 595.41 208.85 595.25 208.73 595.1C208.414 594.713 208.177 594.268 208.03 593.79C208.03 593.31 208.03 592.79 208.03 592.35C208.03 591.91 207.97 591.35 207.94 590.83C208.047 590.154 208.197 589.486 208.39 588.83C208.51 588.44 208.64 588.05 208.76 587.66C208.88 587.27 209.06 586.66 209.22 586.21C209.818 585.528 210.143 584.648 210.13 583.74C210.75 582.193 211.433 580.677 212.18 579.19C213.101 577.683 213.722 576.013 214.01 574.27C214.006 572.696 213.811 571.128 213.43 569.6C212.43 563.1 215.43 556.77 217.64 550.6C219.28 546.049 220.524 541.365 221.36 536.6C222.01 532.95 222.46 529.12 224.41 525.96C225.053 525.073 225.603 524.121 226.05 523.12C226.353 522.074 226.501 520.989 226.49 519.9C226.736 515.484 227.804 511.154 229.64 507.13C230.047 506.35 230.324 505.509 230.46 504.64C230.465 504.583 230.465 504.527 230.46 504.47V504.23L230.97 504.15C231.84 498.64 232.72 492.5 232.12 486.95C231.34 480.521 228.209 474.609 223.33 470.35H223.43C225.15 469.48 225.92 467.35 225.95 465.47C225.954 464.045 225.638 462.638 225.025 461.352C224.413 460.066 223.519 458.934 222.41 458.04C221.914 457.732 221.502 457.306 221.21 456.8C221.044 456.28 220.993 455.731 221.06 455.19C221.068 453.557 220.59 451.959 219.688 450.598C218.785 449.238 217.498 448.177 215.99 447.55C215.677 447.463 215.391 447.298 215.16 447.07C214.903 446.629 214.824 446.107 214.94 445.61C215.033 443.986 214.68 442.368 213.921 440.93C213.161 439.492 212.023 438.289 210.63 437.45C211.03 435.31 211.43 433.07 210.82 430.97C210.21 428.87 208.24 426.97 206.08 427.27C207.84 422.47 205.34 417.13 206 412.06C206.29 409.88 207.16 407.79 207.27 405.6C207.37 403.6 206.88 401.46 207.85 399.72C208.82 397.98 211.11 396.62 210.52 394.72C210.27 393.91 209.52 393.35 209.17 392.56C208.82 391.77 210.22 390.56 210.94 391C211.28 390.74 211.62 390.47 211.94 390.19C212.044 391.207 212.245 392.211 212.54 393.19C213.03 394.83 213.78 396.37 214.29 398C215.07 400.49 215.29 403.19 216.55 405.47C218.55 409.12 222.78 410.93 225.64 413.96C227.32 415.73 228.53 417.96 230.26 419.64C231.574 420.867 233.015 421.95 234.56 422.87L243.8 428.87C244.758 429.566 245.826 430.097 246.96 430.44C247.679 430.577 248.419 430.566 249.133 430.408C249.848 430.25 250.523 429.948 251.117 429.52C251.712 429.092 252.212 428.548 252.589 427.921C252.966 427.293 253.212 426.595 253.31 425.87C252.46 425.569 251.686 425.088 251.04 424.46C251.17 424.46 251.3 424.46 251.43 424.4C253.625 423.826 255.656 422.747 257.36 421.25C263.94 416.01 268.67 408.86 273.29 401.83C278.13 394.46 301.42 374.96 301.42 374.96V367.06C304.384 365.342 307.013 363.103 309.18 360.45C310.349 359.035 311.032 357.282 311.13 355.45C311.175 354.513 310.922 353.586 310.409 352.801C309.895 352.017 309.146 351.414 308.27 351.08V351.08ZM114.57 370.03C114.123 372.903 113.573 375.757 112.92 378.59C112.2 381.867 111.279 385.097 110.16 388.26L109.8 389.26C109.47 388.64 109.14 388.03 108.8 387.4C108.05 385.83 107.44 384.2 106.8 382.57L102.94 372.17C102.44 370.82 101.94 369.26 102.69 368.02C103.24 367.26 104.007 366.685 104.89 366.37C107.604 365.125 110.439 364.164 113.35 363.5C114.27 363.315 115.179 363.075 116.07 362.78C115.352 365.146 114.85 367.573 114.57 370.03V370.03ZM118.84 357.03C118.711 356.799 118.644 356.539 118.644 356.275C118.644 356.011 118.711 355.751 118.84 355.52C119.129 355.229 119.468 354.992 119.84 354.82L120.13 354.62C119.73 355.45 119.28 356.25 118.84 357.06V357.03ZM126.84 345.72C125.705 346.662 124.672 347.721 123.76 348.88C122.781 350.173 121.899 351.537 121.12 352.96C121.238 352.407 121.197 351.832 121.003 351.301C120.808 350.771 120.467 350.306 120.02 349.96C119.666 349.766 119.331 349.538 119.02 349.28C118.686 348.834 118.542 348.274 118.621 347.723C118.7 347.172 118.994 346.674 119.44 346.34C120.36 345.709 121.436 345.342 122.55 345.28L127.16 344.6C127.02 344.99 126.93 345.37 126.83 345.75L126.84 345.72ZM170 680.37C170.081 678.987 169.991 677.6 169.73 676.24C170.3 676.24 170.87 676.24 171.43 676.24C170.96 677.57 170.48 678.98 170 680.37Z" fill="url(#paint11_linear)"/>
<path d="M165.3 272.91C157.3 274.2 148.4 277.28 145.3 284.78C142.99 290.45 144.78 296.83 145.37 302.92C145.594 304.528 145.536 306.162 145.2 307.75C144.54 310.32 142.72 312.4 140.96 314.39C138.515 316.917 136.462 319.795 134.87 322.93C133.43 326.13 132.97 329.93 134.46 333.13C134.967 333.952 135.307 334.866 135.46 335.82C135.56 337.9 133.38 339.22 131.78 340.55C125.78 345.55 126.03 354.55 125.98 362.38C125.888 378.346 122.343 394.103 115.59 408.57C118.121 409.852 120.98 410.341 123.793 409.974C126.606 409.606 129.243 408.399 131.36 406.51C130.528 410.065 129.329 413.524 127.78 416.83C132.86 419.29 138.99 415.25 141.54 410.21C144.09 405.17 144.39 399.31 146.2 393.96C148.01 388.61 151.2 383.96 152.61 378.57C153.06 376.79 153.34 374.89 154.43 373.41C155.348 372.339 156.428 371.418 157.63 370.68C162.905 366.873 166.859 361.513 168.94 355.35C175.16 356.72 181.51 358.1 187.85 357.52C194.19 356.94 200.67 354.07 204.02 348.65C205.5 346.26 206.3 343.51 207.67 341.05C209.35 338.05 211.82 335.57 213.67 332.7C218.13 325.87 218.95 317.1 217.14 309.14C215.33 301.18 211.14 293.98 206.14 287.53C196.56 275.09 180.46 270.48 165.3 272.91Z" fill="#8F6C60"/>
<path d="M114.81 372.93C114.36 375.79 113.81 378.65 113.17 381.48C112.444 384.752 111.523 387.978 110.41 391.14C109.756 392.525 109.457 394.051 109.54 395.58C109.737 396.517 110.1 397.41 110.61 398.22C114.26 404.71 119.2 410.98 119.61 418.42C119.71 420.27 119.61 422.28 120.61 423.81C123.43 417.737 126.543 411.817 129.95 406.05C133.51 400.05 137.47 393.91 138.49 386.97C138.897 383.713 138.853 380.415 138.36 377.17C137.89 373.52 137.07 369.78 134.85 366.86C132.43 363.7 125.85 358.93 121.52 359.92C116.49 361.07 115.45 368.86 114.81 372.93Z" fill="#9EE393"/>
<path d="M243.7 407.91C248.48 405.96 253.36 403.91 257.15 400.39C259.465 398.095 261.517 395.549 263.27 392.8L274.52 376.57C277.18 372.71 279.93 368.66 280.52 364.01C287.108 357.054 291.078 348.027 291.75 338.47C291.83 337.52 292.15 336.27 293.1 336.24C293.52 336.272 293.913 336.461 294.2 336.77C294.935 337.447 295.5 338.288 295.847 339.225C296.195 340.162 296.316 341.167 296.2 342.16C297.84 342.08 299.62 342.04 300.96 343C302.3 343.96 302.66 346.34 301.22 347.13C301.702 347.276 302.114 347.594 302.377 348.024C302.641 348.453 302.738 348.964 302.65 349.46C304.37 349.12 306.26 348.84 307.78 349.7C309.3 350.56 309.88 353.08 308.41 354.02C309.267 354.351 310.001 354.94 310.511 355.704C311.021 356.468 311.283 357.371 311.26 358.29C311.168 360.124 310.484 361.878 309.31 363.29C304.99 369.09 297.37 371.43 292.36 376.65C290.714 378.475 289.238 380.447 287.95 382.54L273.44 404.62C268.83 411.62 264.1 418.79 257.52 424.01C255.816 425.507 253.785 426.586 251.59 427.16C250.491 427.437 249.338 427.424 248.246 427.12C247.153 426.817 246.159 426.234 245.36 425.43C243.91 423.78 243.69 421.43 243.55 419.22C243.31 415.5 243.95 411.66 243.7 407.91Z" fill="#E5A4AF"/>
<path d="M195.11 714.57C195.689 715.143 196.208 715.773 196.66 716.45C197.145 717.249 197.454 718.142 197.567 719.07C197.679 719.998 197.591 720.939 197.31 721.83C196.73 723.623 195.47 725.117 193.8 725.99C193.41 726.166 193.038 726.38 192.69 726.63C192.477 726.839 192.25 727.033 192.01 727.21C191.543 727.444 191.02 727.541 190.5 727.49C186.615 727.244 182.769 726.573 179.03 725.49C177.31 725.06 175.49 724.57 174.29 723.27C173.548 722.337 172.998 721.266 172.67 720.12L171.31 716.33C170.417 714.039 169.718 711.678 169.22 709.27C168.724 706.851 168.855 704.345 169.6 701.99C169.937 702.412 170.114 702.94 170.1 703.48C170.5 706.031 171.501 708.451 173.02 710.54C173.337 711.063 173.721 711.544 174.16 711.97C175.154 712.733 176.329 713.226 177.57 713.4C179.959 713.919 182.388 714.23 184.83 714.33C185.168 714.376 185.512 714.335 185.83 714.21C186.222 713.992 186.518 713.636 186.66 713.21C187.01 712.241 187.01 711.179 186.66 710.21C186 708.36 184.19 707.15 183.33 705.39C182.68 704.09 183.57 702.66 184.89 703.76C186.075 704.873 187.194 706.055 188.24 707.3L195.11 714.57Z" fill="#303D5C"/>
<path d="M182.54 688.3C182.15 694.41 181.88 701.01 185.22 706.14C186.43 707.98 188.04 709.53 189.41 711.26C190.196 712.125 190.716 713.198 190.91 714.35C191.1 716.59 189 718.51 186.79 718.93C184.58 719.35 182.32 718.65 180.18 717.93C178.155 717.426 176.249 716.529 174.57 715.29C171.66 712.83 170.89 708.73 170.31 704.97L168.95 696.23C167.92 691.812 168.355 687.179 170.19 683.03L172.43 676.47C172.577 675.832 172.928 675.26 173.43 674.84C173.951 674.553 174.55 674.441 175.14 674.52C177.28 674.63 182.69 675.41 183.73 677.68C184.61 679.65 182.69 685.95 182.54 688.3Z" fill="#E5A4AF"/>
<path d="M230.61 507.19C230.614 507.247 230.614 507.303 230.61 507.36C230.483 508.225 230.205 509.061 229.79 509.83C227.954 513.843 226.883 518.164 226.63 522.57C226.641 523.659 226.493 524.744 226.19 525.79C225.741 526.787 225.192 527.735 224.55 528.62C222.6 531.79 222.15 535.62 221.5 539.25C220.662 543.995 219.417 548.659 217.78 553.19C215.55 559.37 212.55 565.69 213.57 572.19C213.951 573.718 214.146 575.286 214.15 576.86C213.865 578.6 213.243 580.268 212.32 581.77C211.573 583.25 210.907 584.767 210.32 586.32C209.67 587.98 209.09 589.68 208.58 591.4C207.98 593.49 207.58 595.97 208.96 597.65C209.389 598.061 209.768 598.521 210.09 599.02C210.35 599.785 210.35 600.615 210.09 601.38C209.297 604.713 208.45 608.047 207.55 611.38C206.85 613.98 206.11 616.56 205.35 619.14C199.73 638.01 193.35 656.69 189.59 676.02C189.05 678.8 185.48 680.79 182.72 681.4C181.33 681.697 179.89 681.661 178.517 681.294C177.143 680.927 175.877 680.24 174.82 679.29C174.63 679.12 174.45 678.93 174.28 678.75C171.38 675.63 170.95 670.84 171.17 666.52C172.17 646.63 182.17 628.42 186.93 609.09C188.652 602.101 189.69 594.96 190.03 587.77C191.14 563.77 191.59 538.39 184.8 515.32C183.39 510.52 181.72 505.1 184.26 500.8C185.86 498.08 188.83 496.47 191.77 495.31C197.766 492.973 204.168 491.858 210.601 492.03C217.034 492.202 223.367 493.657 229.23 496.31C229.24 496.791 229.22 497.272 229.17 497.75C228.915 499.986 229.175 502.25 229.93 504.37C230.318 505.264 230.548 506.218 230.61 507.19Z" fill="#303D5C"/>
<path d="M148.39 694.45L147.12 699.07C146.444 701.849 145.541 704.568 144.42 707.2C143.463 708.967 142.66 710.814 142.02 712.72C141.664 714.273 141.526 715.869 141.61 717.46C141.584 718.982 141.803 720.498 142.26 721.95C142.859 723.382 143.75 724.673 144.876 725.74C146.002 726.808 147.338 727.629 148.8 728.15C151.729 729.18 154.797 729.757 157.9 729.86C158.695 729.97 159.502 729.95 160.29 729.8C161.134 729.557 161.92 729.145 162.6 728.59C166.82 725.5 168.99 719.8 169.37 714.59C169.261 713.375 169.023 712.175 168.66 711.01C168.33 710.57 165.14 712.37 166.51 713.88C168.51 716.1 162.62 714.95 159.62 714.76C158.302 714.647 156.995 714.433 155.71 714.12L150.85 713.12C149.26 712.78 147.43 712.23 146.85 710.71C146.27 709.19 147.51 707.37 148.47 705.89C151.01 701.96 151.67 697.15 152.26 692.51C152.37 691.6 153.51 685.69 151.16 687.51C150.353 688.37 149.791 689.43 149.53 690.58C149.1 691.83 148.74 693.14 148.39 694.45Z" fill="#303D5C"/>
<path opacity="0.05" d="M208.91 597.66C207.53 595.98 207.91 593.5 208.54 591.41C208.76 590.63 209.01 589.86 209.27 589.09L190.19 582.63C190.12 584.35 190.04 586.05 189.96 587.75C189.627 594.944 188.592 602.088 186.87 609.08C182.1 628.4 172.09 646.61 171.11 666.49C170.88 671.07 171.37 676.19 174.76 679.27C175.815 680.221 177.079 680.908 178.451 681.277C179.822 681.645 181.261 681.684 182.65 681.39C185.42 680.78 188.98 678.78 189.53 676C193.31 656.67 199.66 638 205.29 619.11C207.043 613.25 208.623 607.343 210.03 601.39C210.29 600.628 210.29 599.802 210.03 599.04C209.717 598.534 209.34 598.071 208.91 597.66Z" fill="black"/>
<path d="M156.19 673.49C154.68 676.09 152.38 678.39 152.03 681.37C151.82 683.16 152.37 684.96 152.36 686.77C152.286 688.268 152.021 689.75 151.57 691.18C149.71 697.893 147.57 704.513 145.15 711.04C144.752 711.882 144.577 712.811 144.64 713.74C144.88 715.27 146.37 716.28 147.79 716.89C152.34 718.83 157.46 718.7 162.4 718.5C163.837 718.558 165.261 718.212 166.51 717.5C168.28 716.29 168.72 713.9 168.83 711.76C169.17 705.56 168.12 699.33 168.83 693.17C169.08 690.92 169.55 688.71 169.9 686.48C170.39 683.38 170.64 680.12 169.62 677.15C168.775 675.018 167.594 673.036 166.12 671.28C164.82 669.378 163.175 667.736 161.27 666.44C160.69 666.1 159.04 665.04 158.45 665.7C158.15 666.04 158.28 666.95 158.24 667.37C158.162 668.016 158.049 668.657 157.9 669.29C157.534 670.765 156.959 672.179 156.19 673.49V673.49Z" fill="#E5A4AF"/>
<path opacity="0.05" d="M192.85 514.93C191.96 516.14 192.14 517.82 192.5 519.28C193.13 521.92 194.19 524.45 195.05 527.02C196.457 531.635 197.553 536.339 198.33 541.1C199.13 545.4 200.83 550.19 200.14 554.52C205.356 564.447 208.785 575.215 210.27 586.33C210.66 589.18 204.33 592.86 204.45 595.73C204.69 601.45 209.25 601.91 205.89 606.47C205.72 606.7 207.15 611.81 206.96 612.03C205.59 613.68 203.85 615.03 202.38 616.54C200.484 618.688 198.862 621.063 197.55 623.61C188.85 639.33 176.27 657.15 180.15 674.7C180.229 675.332 180.112 675.973 179.815 676.536C179.519 677.099 179.056 677.558 178.49 677.85C177.341 678.403 176.084 678.693 174.81 678.7H174.21C171.31 675.58 170.88 670.79 171.1 666.47C172.1 646.58 182.1 628.37 186.86 609.04C188.582 602.051 189.62 594.91 189.96 587.72C191.07 563.72 191.52 538.34 184.73 515.27C183.32 510.47 181.65 505.05 184.19 500.75C185.79 498.03 188.76 496.42 191.7 495.26C197.696 492.923 204.098 491.808 210.531 491.98C216.964 492.152 223.297 493.607 229.16 496.26C229.17 496.741 229.15 497.222 229.1 497.7C228.845 499.936 229.105 502.2 229.86 504.32C230.279 505.228 230.533 506.203 230.61 507.2C230.61 507.2 230.95 503.33 230.94 503.39C223.19 504.5 215.01 509.57 207.19 510.72C203.136 511.153 199.142 512.031 195.28 513.34C194.339 513.636 193.498 514.186 192.85 514.93V514.93Z" fill="black"/>
<path d="M138.86 472.35C137.813 475.683 136.89 479.05 136.09 482.45C135.734 483.625 135.638 484.864 135.81 486.08C136.06 487.22 136.81 488.24 136.89 489.4C137.07 491.2 135.82 492.79 135.13 494.46C133.37 498.71 135.25 503.51 137.13 507.72L142.65 520.22L147.19 530.48C148.54 533.53 149.88 536.58 151.19 539.65C157.09 553.657 161.908 568.096 165.6 582.84C165.724 583.508 165.975 584.146 166.34 584.72C167.11 585.72 168.5 586.04 169.62 586.66C173.02 588.52 173.41 594.1 170.3 596.42C170.94 603.93 165.3 611.18 162.41 618.14C155.73 634.14 156.94 652.14 154.65 669.34L157.24 667.82C159.73 668.96 159.64 672.49 160.98 674.88C162.98 678.47 167.9 678.97 171.98 678.7C173.251 678.694 174.505 678.404 175.65 677.85C176.217 677.559 176.68 677.101 176.977 676.537C177.274 675.973 177.391 675.332 177.31 674.7C173.44 657.15 186.01 639.33 194.72 623.61C196.028 621.063 197.647 618.688 199.54 616.54C201.02 614.98 202.75 613.67 204.13 612.03C207.97 607.42 208.46 600.92 208.2 594.92C207.59 580.811 203.868 567.012 197.3 554.51C198 550.19 196.3 545.4 195.5 541.1C194.72 536.34 193.614 531.639 192.19 527.03C191.33 524.44 190.28 521.92 189.64 519.28C189.29 517.82 189.1 516.14 189.99 514.93C190.647 514.183 191.499 513.633 192.45 513.34C196.312 512.031 200.306 511.153 204.36 510.72L231.19 506.87C232.05 501.36 232.93 495.22 232.33 489.68C231.685 484.546 229.548 479.715 226.183 475.784C222.818 471.854 218.373 468.998 213.4 467.57C212.23 467.26 210.86 467.06 209.9 467.8C186.225 463.152 161.749 464.72 138.86 472.35V472.35Z" fill="#303D5C"/>
<path d="M163.19 327.44C163.581 330.059 163.173 332.736 162.02 335.12C161.241 336.422 160.223 337.565 159.02 338.49C156.426 340.576 153.41 342.074 150.18 342.88C148.28 343.36 146.18 343.68 144.89 345.19C143.01 347.46 144.27 350.9 145.89 353.38C148.67 357.7 152.53 361.61 157.48 362.96C161.48 364.04 165.65 363.38 169.69 364.08C172.62 364.59 175.38 365.8 178.27 366.49C182.382 367.431 186.665 367.33 190.728 366.197C194.792 365.063 198.508 362.933 201.54 360C197.24 356.7 192.78 353.19 190.54 348.25C188.963 344.715 188.666 340.741 189.7 337.01C190.7 333.35 193.05 329.79 192.33 326.01C191.61 322.23 187.93 319.7 184.33 318.44C181.025 317.436 177.628 316.763 174.19 316.43C172.3 316.17 160.3 313.52 159.55 314.83C159.13 315.57 161.62 319.95 161.93 320.92C162.661 323.022 163.085 325.217 163.19 327.44V327.44Z" fill="#E5A4AF"/>
<path d="M178.32 336.2C191.763 336.2 202.66 325.303 202.66 311.86C202.66 298.417 191.763 287.52 178.32 287.52C164.877 287.52 153.98 298.417 153.98 311.86C153.98 325.303 164.877 336.2 178.32 336.2Z" fill="#E6A4AF"/>
<path d="M165.46 352.09L181.97 354.87C186.028 355.696 190.159 356.111 194.3 356.11C196.561 355.885 198.839 355.885 201.1 356.11C202.66 356.37 204.15 356.96 205.71 357.16C207.64 357.4 209.6 357.03 211.53 357.28C215.11 357.74 218.06 360.22 220.78 362.59C223.97 365.37 227.4 368.59 227.65 372.84C227.695 373.322 227.626 373.809 227.45 374.26C227.137 374.77 226.717 375.207 226.22 375.54C223.22 378.03 221.49 381.74 219.33 385.02C217.106 388.404 214.335 391.395 211.13 393.87C210.41 393.41 209.04 394.62 209.35 395.42C209.66 396.22 210.45 396.77 210.71 397.58C211.3 399.45 208.99 400.83 208.03 402.58C207.07 404.33 207.56 406.46 207.46 408.45C207.34 410.64 206.46 412.73 206.19 414.9C205.52 419.97 208.03 425.31 206.26 430.1C208.43 429.83 210.39 431.7 211 433.79C211.61 435.88 211.22 438.13 210.81 440.27C212.204 441.104 213.343 442.303 214.104 443.738C214.865 445.173 215.22 446.788 215.13 448.41C215.045 448.601 215.004 448.809 215.01 449.019C215.016 449.228 215.069 449.433 215.165 449.62C215.261 449.806 215.398 449.968 215.565 450.094C215.732 450.221 215.925 450.308 216.13 450.35C217.635 450.977 218.921 452.037 219.823 453.396C220.726 454.754 221.205 456.349 221.2 457.98C221.133 458.524 221.184 459.077 221.35 459.6C221.641 460.1 222.05 460.522 222.54 460.83C223.649 461.722 224.543 462.852 225.156 464.136C225.769 465.421 226.085 466.827 226.08 468.25C226.08 470.18 225.28 472.25 223.57 473.12C220.07 474.9 216.32 475.59 212.48 476.42C208.942 477.256 205.359 477.894 201.75 478.33C198.424 478.602 195.086 478.706 191.75 478.64L169.67 478.55C163.46 478.55 157.25 478.55 151.06 478.08C145.28 477.69 139.37 476.97 133.77 478.49C133.07 477.3 134.19 475.93 134.88 474.74C135.671 473.118 136.101 471.344 136.14 469.54L137.54 454.83C137.806 452.807 137.843 450.761 137.65 448.73C137.35 446.56 136.53 444.51 136.11 442.36C135.31 438.24 136.04 433.98 135.85 429.78C135.564 426.059 134.918 422.376 133.92 418.78L129.54 400.78C128.84 397.89 128.47 394.53 127.39 391.78C124.023 383.113 120.493 374.54 116.8 366.06C116.666 365.688 116.615 365.292 116.65 364.898C116.684 364.504 116.804 364.123 117 363.78L120.65 357.24C121.627 355.381 122.743 353.599 123.99 351.91C127.073 348.012 131.438 345.333 136.31 344.35C141.189 343.396 146.247 344.144 150.64 346.47C152.34 347.38 153.92 348.47 155.64 349.37C158.59 350.77 162.19 352.31 165.46 352.09Z" fill="#9EE393"/>
<path d="M224.04 368.12L229.79 375.79C230.318 376.442 230.768 377.153 231.13 377.91C231.99 379.91 231.52 382.27 231.98 384.42C232.338 385.796 232.908 387.109 233.67 388.31C235.832 392.111 238.275 395.744 240.98 399.18C242.23 400.925 243.769 402.444 245.53 403.67C246.412 404.28 247.415 404.693 248.471 404.881C249.527 405.069 250.611 405.028 251.65 404.76C250.781 405.098 250.069 405.747 249.65 406.58C247.46 410.92 247.3 416.06 248.23 420.82C248.492 422.454 249.033 424.03 249.83 425.48C250.628 426.943 251.928 428.069 253.49 428.65C253.392 429.375 253.147 430.073 252.769 430.7C252.392 431.327 251.891 431.87 251.297 432.297C250.703 432.724 250.027 433.025 249.313 433.182C248.598 433.339 247.859 433.349 247.14 433.21C246.008 432.871 244.942 432.34 243.99 431.64L234.75 425.64C233.208 424.717 231.767 423.634 230.45 422.41C228.72 420.69 227.52 418.51 225.84 416.74C222.98 413.74 218.78 411.9 216.76 408.26C215.49 405.98 215.27 403.26 214.49 400.8C213.98 399.17 213.23 397.63 212.74 395.99C211.22 390.93 212.32 385.38 214.63 380.63C216.94 375.88 220.62 372.16 224.04 368.12Z" fill="#9EE393"/>
<path d="M202.37 297.98C200.117 294.486 197.211 291.461 193.81 289.07C189.26 285.68 184.03 282.86 178.36 282.54C175.989 282.419 173.62 282.804 171.41 283.67C171.3 276.8 169.6 272.22 165.3 272.91C157.3 274.2 148.4 277.28 145.3 284.78C142.99 290.45 144.78 296.83 145.37 302.92C145.594 304.528 145.536 306.162 145.2 307.75C144.54 310.32 142.72 312.4 140.96 314.39C138.515 316.917 136.462 319.795 134.87 322.93C133.43 326.13 132.97 329.93 134.46 333.13C134.967 333.952 135.307 334.866 135.46 335.82C135.56 337.9 133.38 339.22 131.78 340.55C125.78 345.55 126.03 354.55 125.98 362.38C125.888 378.346 122.343 394.103 115.59 408.57C118.121 409.852 120.98 410.341 123.793 409.974C126.606 409.606 129.243 408.399 131.36 406.51C130.528 410.065 129.329 413.524 127.78 416.83C132.86 419.29 138.99 415.25 141.54 410.21C144.09 405.17 144.39 399.31 146.2 393.96C148.01 388.61 151.2 383.96 152.61 378.57C153.06 376.79 153.34 374.89 154.43 373.41C155.348 372.339 156.428 371.418 157.63 370.68C162.87 366.92 155.15 338.43 157.2 332.31C160.2 332.98 165.85 318.31 169.04 303.31C171.265 304.077 173.638 304.313 175.97 304C176.781 303.824 177.613 303.767 178.44 303.83C179.208 303.988 179.94 304.286 180.6 304.71C182.96 306.158 185.428 307.425 187.98 308.5C193.26 310.5 199.06 310.21 204.69 309.93C205.453 305.797 204.624 301.528 202.37 297.98V297.98Z" fill="#8F6C60"/>
<g opacity="0.1">
<path opacity="0.1" d="M118.45 408.57C125.224 394.122 128.786 378.377 128.89 362.42C128.94 354.62 128.68 345.56 134.69 340.59C136.29 339.26 138.47 337.94 138.37 335.86C138.213 334.907 137.873 333.994 137.37 333.17C135.88 329.99 136.37 326.17 137.77 322.97C139.363 319.833 141.419 316.954 143.87 314.43C145.62 312.43 147.45 310.36 148.1 307.79C148.435 306.202 148.496 304.568 148.28 302.96C147.68 296.87 145.9 290.49 148.21 284.82C151.21 277.56 159.6 274.45 167.4 273.09C166.722 272.874 166.001 272.826 165.3 272.95C157.3 274.24 148.4 277.32 145.3 284.82C142.99 290.49 144.78 296.87 145.37 302.96C145.594 304.568 145.536 306.202 145.2 307.79C144.54 310.36 142.72 312.44 140.96 314.43C138.515 316.957 136.462 319.835 134.87 322.97C133.43 326.17 132.97 329.97 134.46 333.17C134.967 333.992 135.307 334.906 135.46 335.86C135.56 337.94 133.38 339.26 131.78 340.59C125.78 345.59 126.03 354.59 125.98 362.42C125.882 378.372 122.338 394.115 115.59 408.57C117.969 409.8 120.657 410.304 123.32 410.02C121.618 409.857 119.964 409.364 118.45 408.57V408.57Z" fill="black"/>
<path opacity="0.1" d="M130.64 416.79C132.178 413.483 133.368 410.024 134.19 406.47C133.163 407.409 131.996 408.182 130.73 408.76C129.95 411.504 128.946 414.18 127.73 416.76C129.193 417.456 130.839 417.666 132.43 417.36C131.812 417.246 131.21 417.055 130.64 416.79V416.79Z" fill="black"/>
<path opacity="0.1" d="M174.27 283.67C175.757 283.091 177.32 282.727 178.91 282.59H178.36C176.982 282.519 175.601 282.623 174.25 282.9C174.26 283.12 174.27 283.39 174.27 283.67Z" fill="black"/>
<path opacity="0.1" d="M190.84 308.47C188.291 307.395 185.827 306.128 183.47 304.68C182.807 304.256 182.071 303.957 181.3 303.8C180.544 303.732 179.782 303.779 179.04 303.94C179.582 304.138 180.104 304.385 180.6 304.68C182.96 306.128 185.428 307.395 187.98 308.47C191.955 309.781 196.142 310.324 200.32 310.07C197.093 310.069 193.889 309.528 190.84 308.47V308.47Z" fill="black"/>
<path opacity="0.1" d="M171.9 303.28C171.9 303.5 171.81 303.72 171.76 303.94C172.958 304.118 174.174 304.152 175.38 304.04C174.195 303.917 173.028 303.662 171.9 303.28V303.28Z" fill="black"/>
</g>
<path d="M121.24 416.16C121.379 417.448 121.237 418.751 120.822 419.979C120.408 421.207 119.731 422.33 118.84 423.27C117.826 424.248 116.686 425.085 115.45 425.76C114.257 426.577 112.885 427.095 111.45 427.27C109.515 427.207 107.677 426.41 106.31 425.04C102.07 421.32 99.95 415.81 97.99 410.52C95.4 403.52 92.82 396.45 91.71 389.06C90.52 381.14 91.03 372.94 88.76 365.25C90.76 361.25 92.06 356.79 94.35 352.91C95.8033 350.598 97.0898 348.185 98.2 345.69C100.326 340.378 100.567 334.498 98.88 329.03C99.2811 328.769 99.7548 328.641 100.233 328.666C100.711 328.692 101.169 328.868 101.54 329.17C102.267 329.794 102.818 330.597 103.14 331.5C104.46 334.585 105.01 337.945 104.74 341.29C104.569 342.095 104.664 342.934 105.01 343.68C105.32 344.063 105.719 344.363 106.173 344.555C106.626 344.747 107.12 344.824 107.61 344.78C109.649 344.679 111.666 344.313 113.61 343.69C119.651 342.149 125.908 341.631 132.12 342.16C133.372 342.197 134.602 342.497 135.73 343.04C136.288 343.318 136.757 343.746 137.086 344.276C137.414 344.806 137.589 345.417 137.59 346.04L122.79 348.21C121.676 348.272 120.6 348.639 119.68 349.27C119.237 349.604 118.945 350.1 118.866 350.648C118.787 351.197 118.929 351.755 119.26 352.2C119.573 352.456 119.907 352.683 120.26 352.88C120.639 353.167 120.945 353.541 121.152 353.969C121.358 354.398 121.46 354.87 121.448 355.346C121.437 355.822 121.312 356.288 121.084 356.706C120.857 357.124 120.533 357.482 120.14 357.75C119.768 357.922 119.429 358.159 119.14 358.45C118.54 359.26 119.34 360.33 119.6 361.31C119.712 362.033 119.602 362.773 119.284 363.432C118.966 364.091 118.456 364.638 117.82 365C116.536 365.704 115.138 366.175 113.69 366.39C110.784 367.06 107.953 368.021 105.24 369.26C104.357 369.575 103.59 370.15 103.04 370.91C102.31 372.15 102.79 373.71 103.29 375.06L107.15 385.44C107.75 387.07 108.36 388.7 109.15 390.27C110.15 392.27 111.34 394.21 112.35 396.27C113.36 398.33 114.02 400.12 114.76 402.08C116.69 407.37 120.58 410.57 121.24 416.16Z" fill="#E5A4AF"/>
<path d="M300.92 348.82H254.79V393.48H300.92V348.82Z" fill="url(#paint12_linear)"/>
<path d="M300.13 349.59H255.59V392.71H300.13V349.59Z" fill="#7CFCFF"/>
<path d="M292.41 346.19C291.587 346.802 290.992 347.671 290.72 348.66C290.657 348.864 290.661 349.083 290.731 349.284C290.801 349.486 290.934 349.659 291.11 349.78C291.331 349.85 291.569 349.85 291.79 349.78C292.897 349.584 293.932 349.097 294.79 348.37C294.45 348.551 294.148 348.795 293.9 349.09C293.778 349.239 293.702 349.421 293.681 349.612C293.659 349.804 293.694 349.998 293.78 350.17C293.903 350.319 294.055 350.441 294.227 350.529C294.399 350.617 294.587 350.668 294.78 350.68C296.207 350.939 297.674 350.871 299.07 350.48C298.419 350.722 297.817 351.078 297.29 351.53C297.028 351.761 296.82 352.046 296.68 352.365C296.54 352.685 296.472 353.031 296.48 353.38C296.481 353.511 296.51 353.641 296.565 353.76C296.621 353.879 296.701 353.984 296.8 354.07C296.945 354.162 297.109 354.22 297.28 354.24C298.603 354.472 299.957 354.472 301.28 354.24C301.621 354.226 301.954 354.128 302.247 353.953C302.54 353.779 302.785 353.533 302.96 353.24C303.028 352.909 303.028 352.567 302.961 352.235C302.894 351.904 302.761 351.589 302.57 351.31C301.861 349.784 301.518 348.112 301.57 346.43C301.613 346.09 301.565 345.745 301.43 345.43C301.21 345.125 300.898 344.897 300.54 344.78C299.13 344.16 297.21 343.3 295.64 343.78C294.415 344.363 293.318 345.182 292.41 346.19V346.19Z" fill="#E5A4AF"/>
</g>
<defs>
<linearGradient id="paint0_linear" x1="421.86" y1="330.48" x2="421.86" y2="285.82" gradientUnits="userSpaceOnUse">
<stop stop-color="#808080" stop-opacity="0.25"/>
<stop offset="0.54" stop-color="#808080" stop-opacity="0.12"/>
<stop offset="1" stop-color="#808080" stop-opacity="0.1"/>
</linearGradient>
<linearGradient id="paint1_linear" x1="24338.4" y1="14603.1" x2="24338.4" y2="12608.5" gradientUnits="userSpaceOnUse">
<stop stop-color="#808080" stop-opacity="0.25"/>
<stop offset="0.54" stop-color="#808080" stop-opacity="0.12"/>
<stop offset="1" stop-color="#808080" stop-opacity="0.1"/>
</linearGradient>
<linearGradient id="paint2_linear" x1="32963.2" y1="21543.4" x2="32963.2" y2="19548.9" gradientUnits="userSpaceOnUse">
<stop stop-color="#808080" stop-opacity="0.25"/>
<stop offset="0.54" stop-color="#808080" stop-opacity="0.12"/>
<stop offset="1" stop-color="#808080" stop-opacity="0.1"/>
</linearGradient>
<linearGradient id="paint3_linear" x1="13815.7" y1="11411" x2="13815.7" y2="9416.46" gradientUnits="userSpaceOnUse">
<stop stop-color="#808080" stop-opacity="0.25"/>
<stop offset="0.54" stop-color="#808080" stop-opacity="0.12"/>
<stop offset="1" stop-color="#808080" stop-opacity="0.1"/>
</linearGradient>
<linearGradient id="paint4_linear" x1="18135.6" y1="14333.2" x2="18135.6" y2="12338.7" gradientUnits="userSpaceOnUse">
<stop stop-color="#808080" stop-opacity="0.25"/>
<stop offset="0.54" stop-color="#808080" stop-opacity="0.12"/>
<stop offset="1" stop-color="#808080" stop-opacity="0.1"/>
</linearGradient>
<linearGradient id="paint5_linear" x1="35506.4" y1="21528.8" x2="35506.4" y2="19534.3" gradientUnits="userSpaceOnUse">
<stop stop-color="#808080" stop-opacity="0.25"/>
<stop offset="0.54" stop-color="#808080" stop-opacity="0.12"/>
<stop offset="1" stop-color="#808080" stop-opacity="0.1"/>
</linearGradient>
<linearGradient id="paint6_linear" x1="39323.9" y1="11437.9" x2="39323.9" y2="9443.4" gradientUnits="userSpaceOnUse">
<stop stop-color="#808080" stop-opacity="0.25"/>
<stop offset="0.54" stop-color="#808080" stop-opacity="0.12"/>
<stop offset="1" stop-color="#808080" stop-opacity="0.1"/>
</linearGradient>
<linearGradient id="paint7_linear" x1="39088.2" y1="17921.6" x2="39088.2" y2="15927.1" gradientUnits="userSpaceOnUse">
<stop stop-color="#808080" stop-opacity="0.25"/>
<stop offset="0.54" stop-color="#808080" stop-opacity="0.12"/>
<stop offset="1" stop-color="#808080" stop-opacity="0.1"/>
</linearGradient>
<linearGradient id="paint8_linear" x1="40737.8" y1="18378.2" x2="40737.8" y2="16383.7" gradientUnits="userSpaceOnUse">
<stop stop-color="#808080" stop-opacity="0.25"/>
<stop offset="0.54" stop-color="#808080" stop-opacity="0.12"/>
<stop offset="1" stop-color="#808080" stop-opacity="0.1"/>
</linearGradient>
<linearGradient id="paint9_linear" x1="33782.8" y1="20816.9" x2="33782.8" y2="18822.4" gradientUnits="userSpaceOnUse">
<stop stop-color="#808080" stop-opacity="0.25"/>
<stop offset="0.54" stop-color="#808080" stop-opacity="0.12"/>
<stop offset="1" stop-color="#808080" stop-opacity="0.1"/>
</linearGradient>
<linearGradient id="paint10_linear" x1="34018.5" y1="14652.8" x2="34018.5" y2="12658.3" gradientUnits="userSpaceOnUse">
<stop stop-color="#808080" stop-opacity="0.25"/>
<stop offset="0.54" stop-color="#808080" stop-opacity="0.12"/>
<stop offset="1" stop-color="#808080" stop-opacity="0.1"/>
</linearGradient>
<linearGradient id="paint11_linear" x1="27305" y1="259048" x2="76863.6" y2="259048" gradientUnits="userSpaceOnUse">
<stop stop-color="#808080" stop-opacity="0.25"/>
<stop offset="0.54" stop-color="#808080" stop-opacity="0.12"/>
<stop offset="1" stop-color="#808080" stop-opacity="0.1"/>
</linearGradient>
<linearGradient id="paint12_linear" x1="13072.5" y1="17921.6" x2="13072.5" y2="15927.1" gradientUnits="userSpaceOnUse">
<stop stop-color="#808080" stop-opacity="0.25"/>
<stop offset="0.54" stop-color="#808080" stop-opacity="0.12"/>
<stop offset="1" stop-color="#808080" stop-opacity="0.1"/>
</linearGradient>
<clipPath id="clip0">
<rect width="1132.39" height="767.13" fill="white"/>
</clipPath>
</defs>
</svg>
